<?xml version="1.0" encoding="UTF-8"?>
<svg id="Layer_1" data-name="Layer 1" xmlns="http://www.w3.org/2000/svg" viewBox="0 0 2839.65 2839.65">
  <defs>
    <style>
      .cls-1 {
        fill: #1794d7;
      }

      .cls-2 {
        fill: #e6f6ff;
      }

      .cls-3 {
        fill: #fff;
      }

      .cls-4 {
        fill: #ccc;
      }

      .cls-5 {
        fill: #e6e6e6;
      }
    </style>
  </defs>
  <path class="cls-4" d="M1910.8,1402.97l-490.98-283.46v-566.93c393.78,227.32,491.04,483.6,490.98,850.39Z"/>
  <polygon class="cls-4" points="1419.82 1686.44 1419.82 1119.51 1910.8 1402.97 1910.8 1969.9 1419.82 1686.44"/>
  <polygon class="cls-5" points="1321.63 1743.13 1321.63 1176.2 1812.6 1459.67 1812.6 2026.59 1321.63 1743.13"/>
  <polygon class="cls-3" points="1223.43 1799.82 1223.43 1232.89 1714.41 1516.36 1714.41 2083.29 1223.43 1799.82"/>
  <polygon class="cls-1" points="1910.8 1969.9 1910.8 1402.97 1419.82 1686.44 1419.82 2253.37 1910.8 1969.9"/>
  <polygon class="cls-4" points="928.85 1969.9 928.85 1402.97 1322.87 1708.9 1322.87 2275.83 928.85 1969.9"/>
  <path class="cls-2" d="M1419.82,1686.44l-490.98-283.46c245.49,141.73,736.46,141.73,981.95,0l-490.98,283.46,490.98-283.46"/>
  <polygon class="cls-1" points="1419.82 1119.51 1419.82 552.58 928.85 836.04 928.85 1402.97 1419.82 1119.51"/>
</svg>